<?xml version="1.0" encoding="utf-8"?>
<!-- Generator: Adobe Illustrator 27.5.0, SVG Export Plug-In . SVG Version: 6.00 Build 0)  -->
<svg version="1.1" xmlns="http://www.w3.org/2000/svg" xmlns:xlink="http://www.w3.org/1999/xlink" x="0px" y="0px"
	 viewBox="0 0 500 500" style="enable-background:new 0 0 500 500;" xml:space="preserve">
<g id="Background_Complete">
	<g>
		<rect y="382.398" style="fill:#EBEBEB;" width="500" height="0.25"/>
		<rect x="52.459" y="391.922" style="fill:#EBEBEB;" width="16.061" height="0.25"/>
		<rect x="171.14" y="389.208" style="fill:#EBEBEB;" width="53.527" height="0.25"/>
		<rect x="69.521" y="401.208" style="fill:#EBEBEB;" width="36.254" height="0.25"/>
		<rect x="379.14" y="389.083" style="fill:#EBEBEB;" width="43.193" height="0.25"/>
		<rect x="431.237" y="389.083" style="fill:#EBEBEB;" width="6.333" height="0.25"/>
		<rect x="317" y="395.306" style="fill:#EBEBEB;" width="53.889" height="0.25"/>
		<path style="fill:#EBEBEB;" d="M237.014,337.8H43.915c-3.147,0-5.708-2.561-5.708-5.708V60.66c0-3.147,2.561-5.708,5.708-5.708
			h193.099c3.146,0,5.707,2.561,5.707,5.708v271.432C242.721,335.239,240.16,337.8,237.014,337.8z M43.915,55.203
			c-3.01,0-5.458,2.448-5.458,5.458v271.432c0,3.01,2.448,5.458,5.458,5.458h193.099c3.009,0,5.457-2.448,5.457-5.458V60.66
			c0-3.009-2.448-5.458-5.457-5.458H43.915z"/>
		<path style="fill:#EBEBEB;" d="M453.31,337.8H260.212c-3.147,0-5.707-2.561-5.707-5.708V60.66c0-3.147,2.561-5.708,5.707-5.708
			H453.31c3.148,0,5.708,2.561,5.708,5.708v271.432C459.019,335.239,456.458,337.8,453.31,337.8z M260.212,55.203
			c-3.009,0-5.457,2.448-5.457,5.458v271.432c0,3.01,2.448,5.458,5.457,5.458H453.31c3.01,0,5.458-2.448,5.458-5.458V60.66
			c0-3.009-2.448-5.458-5.458-5.458H260.212z"/>
	</g>
	<g>
		<path style="fill:#E6E6E6;" d="M446.919,319.881c0,0-13.953,3.748-27.934,13.575c4.388-26.516-9.131-47.409-9.131-47.409
			s-18.304,16.532-27.841,38.857c-3.53-4.196-7.155-7.199-9.564-8.977c2.049-8.014,2.485-13.377,2.485-13.377
			s-17.821,4.787-35.678,17.338c5.605-33.866-11.662-60.552-11.662-60.552s-23.378,21.116-35.559,49.629
			c-7.71-9.165-15.81-13.909-15.81-13.909s-12.331,20.915-13.513,43.615c-13.127-3.02-24.879-1.724-24.879-1.724
			s0.487,26.982,18.279,41.7c1.704,1.41,3.506,2.655,5.369,3.751h162.624c12.756-8.293,20.828-19.892,20.828-19.892
			s-5.846-1.99-14.334-2.208C445.139,341.784,446.919,319.881,446.919,319.881z"/>
		<path style="fill:#F5F5F5;" d="M288.862,311.459c0,0-15.833,4.253-31.698,15.404c4.979-30.088-10.361-53.796-10.361-53.796
			s-20.77,18.76-31.592,44.092c-4.006-4.761-8.119-8.169-10.853-10.186c2.325-9.094,2.82-15.179,2.82-15.179
			s-20.222,5.432-40.485,19.674c6.36-38.429-13.233-68.711-13.233-68.711s-26.528,23.96-40.35,56.315
			c-8.749-10.4-17.94-15.783-17.94-15.783s-13.992,23.733-15.334,49.491c-14.896-3.427-28.231-1.956-28.231-1.956
			s0.553,30.617,20.741,47.318c1.933,1.6,3.979,3.012,6.092,4.257h184.534c14.475-9.411,23.634-22.572,23.634-22.572
			s-6.633-2.258-16.266-2.505C286.842,336.312,288.862,311.459,288.862,311.459z"/>
		
			<ellipse transform="matrix(0.7071 -0.7071 0.7071 0.7071 -39.5229 121.3393)" style="fill:#F5F5F5;" cx="126.708" cy="108.378" rx="20.934" ry="20.934"/>
		<path style="fill:#EBEBEB;" d="M108.055,194.388c8.21-5.701,19.877-9.581,30.543-9.581c13.854,0,21.332,6.543,18.212,15.139
			c2.673-0.707,5.442-1.098,8.097-1.098c9.449,0,14.035,4.971,10.261,11.093c-0.352,0.572-0.774,1.143-1.24,1.692H80.925
			c0.165-1.263,0.67-2.61,1.528-4.001C86.58,200.938,97.556,195.396,108.055,194.388z"/>
		<path style="fill:#F5F5F5;" d="M309.322,159.376c6.082-4.223,14.726-7.098,22.627-7.098c10.263,0,15.803,4.847,13.492,11.215
			c1.98-0.524,4.031-0.813,5.998-0.813c7,0,10.398,3.683,7.602,8.218c-0.261,0.423-0.574,0.847-0.919,1.254h-68.899
			c0.122-0.936,0.496-1.933,1.132-2.964C293.412,164.229,301.544,160.123,309.322,159.376z"/>
		<path style="fill:#F5F5F5;" d="M115.557,154.577c-0.689-3.33-4.71-5.597-10.941-5.597c-8.093,0-17.175,3.822-21.544,8.844
			c-1.052-0.413-2.388-0.641-3.939-0.641c-5.52,0-11.78,2.904-13.985,6.48c-0.206,0.334-0.371,0.668-0.494,0.989h54.329
			c0.814-0.738,1.489-1.524,1.99-2.337C123.383,158.403,120.964,155.165,115.557,154.577z"/>
		<path style="fill:#F5F5F5;" d="M426.813,194.949c-0.44-2.123-3.002-3.568-6.974-3.568c-5.159,0-10.948,2.436-13.733,5.637
			c-0.671-0.263-1.522-0.409-2.511-0.409c-3.518,0-7.509,1.851-8.914,4.13c-0.131,0.213-0.236,0.426-0.315,0.63h34.63
			c0.519-0.47,0.949-0.972,1.268-1.49C431.802,197.389,430.259,195.325,426.813,194.949z"/>
		<path style="fill:#EBEBEB;" d="M335.833,96.762c0.681,0,1.331,0.03,1.951,0.091c6.192-4.751,15.57-8.063,24.103-8.063
			c2.289,0,4.35,0.236,6.132,0.678c8.345-6.053,20.521-10.21,31.636-10.21c13.556,0,21.078,6.19,18.715,14.459
			c7.183,1.066,10.303,5.581,6.97,10.987c-0.357,0.579-0.784,1.157-1.256,1.713h-108.98l0.042-0.068
			C318.408,101.056,327.675,96.762,335.833,96.762z"/>
	</g>
</g>
<g id="Background_Simple" style="display:none;">
	<g style="display:inline;">
		<path style="fill:#407BFF;" d="M285.107,110.068c15.799-6.259,31.346-13.349,48.277-15.71
			c24.619-3.432,50.693,0.919,65.227,20.387c21.117,28.285,14.579,75.258-4.223,105.075c-9.735,15.438-23.515,28.388-37.919,40.272
			c-35.126,28.983-76.285,51.425-122.298,57.634c-9.151,1.235-18.512,1.878-27.658,1.395c-42.675-2.255-76.938-29.994-99.867-60.94
			c-53.62-89.214,21.955-142.517,74.715-141.85c24.305,0.307,49.803,7.623,74.137,3.009
			C265.711,117.405,275.456,113.892,285.107,110.068z"/>
		<path style="opacity:0.9;fill:#FFFFFF;" d="M285.107,110.068c15.799-6.259,31.346-13.349,48.277-15.71
			c24.619-3.432,50.693,0.919,65.227,20.387c21.117,28.285,14.579,75.258-4.223,105.075c-9.735,15.438-23.515,28.388-37.919,40.272
			c-35.126,28.983-76.285,51.425-122.298,57.634c-9.151,1.235-18.512,1.878-27.658,1.395c-42.675-2.255-76.938-29.994-99.867-60.94
			c-53.62-89.214,21.955-142.517,74.715-141.85c24.305,0.307,49.803,7.623,74.137,3.009
			C265.711,117.405,275.456,113.892,285.107,110.068z"/>
	</g>
</g>
<g id="Shadow_1_">
	<ellipse id="_x3C_Path_x3E__20_" style="fill:#F5F5F5;" cx="250" cy="416.238" rx="193.889" ry="11.323"/>
</g>
<g id="Character_1_">
	<g>
		<g>
			<polygon style="fill:#FF8B7B;" points="234.524,332.593 243.031,333.298 249.613,313.905 241.106,313.2 			"/>
			<path style="fill:#263238;" d="M243.749,331.503l-9.344-0.179c-0.35-0.007-0.657,0.23-0.74,0.57l-1.836,7.573
				c-0.19,0.785,0.394,1.544,1.202,1.546c3.372,0.007,8.246-0.097,12.483-0.016c4.954,0.095,6.511,0.447,12.32,0.559
				c3.513,0.067,4.556-3.465,3.092-3.815c-6.666-1.593-9.412-1.854-15.128-5.532C245.176,331.809,244.487,331.517,243.749,331.503z"
				/>
			<polygon style="opacity:0.2;" points="249.609,313.91 246.218,323.906 237.708,323.201 241.099,313.205 			"/>
			<g>
				<path style="fill:#407BFF;" d="M268.333,264.222c-2.217-16.225-34.144-33.05-34.144-33.05l-29.362-6.588
					c0,0-11.188,2.583-6.924,14.916c4.263,12.333,34.853,19.5,49.806,31.389C245.988,291.104,237,317.222,237,317.222l12.363,2.833
					C249.363,320.056,271.111,284.556,268.333,264.222z"/>
				<path style="opacity:0.3;fill:#FFFFFF;" d="M268.333,264.222c-2.217-16.225-34.144-33.05-34.144-33.05l-29.362-6.588
					c0,0-11.188,2.583-6.924,14.916c4.263,12.333,34.853,19.5,49.806,31.389C245.988,291.104,237,317.222,237,317.222l12.363,2.833
					C249.363,320.056,271.111,284.556,268.333,264.222z"/>
			</g>
			<polygon style="fill:#407BFF;" points="251.199,322.716 234.146,319.995 235.025,314.485 253.17,317.098 			"/>
			<path style="fill:#407BFF;" d="M244.568,332.701c-0.071-0.026-0.122-0.089-0.131-0.166c-0.01-0.086,0.034-0.168,0.112-0.206
				c0.393-0.194,3.866-1.871,4.894-1.272c0.199,0.116,0.311,0.304,0.324,0.546c0,0,0,0,0,0c0.023,0.404-0.111,0.734-0.399,0.978
				c-0.954,0.813-3.4,0.429-4.773,0.128C244.585,332.707,244.576,332.704,244.568,332.701z M249.165,331.373
				c-0.641-0.236-2.519,0.44-3.889,1.061c1.883,0.35,3.293,0.295,3.829-0.161c0.188-0.16,0.272-0.372,0.257-0.647
				c-0.006-0.106-0.043-0.171-0.124-0.219C249.216,331.394,249.191,331.383,249.165,331.373z"/>
			<path style="fill:#407BFF;" d="M244.568,332.701c-0.018-0.007-0.035-0.016-0.051-0.028c-0.058-0.043-0.088-0.114-0.08-0.185
				c0.011-0.098,0.286-2.398,1.392-3.271c0.337-0.266,0.718-0.376,1.131-0.326l0,0c0.556,0.067,0.712,0.353,0.744,0.581
				c0.138,0.971-1.944,2.782-2.985,3.225C244.669,332.718,244.616,332.719,244.568,332.701z M247.116,329.34
				c-0.052-0.019-0.119-0.035-0.206-0.046l0,0c-0.306-0.037-0.578,0.042-0.831,0.242c-0.727,0.574-1.058,1.946-1.18,2.617
				c1.066-0.613,2.485-2.041,2.402-2.623C247.296,329.493,247.283,329.401,247.116,329.34z M246.934,329.092l0.005,0.002
				L246.934,329.092z"/>
			<path style="opacity:0.2;" d="M221.9,246.26v10.57c8.21,3.86,16.95,7.76,23.5,12.34C241.57,260.67,228.79,248.23,221.9,246.26z"
				/>
		</g>
		<g>
			<path style="fill:#263238;" d="M154.28,296.778c30.73,0,55.73,25,55.73,55.73c0,30.73-25.001,55.73-55.73,55.73
				c-30.73,0-55.73-25.001-55.73-55.73C98.55,321.778,123.55,296.778,154.28,296.778 M154.28,288.778
				c-35.197,0-63.73,28.533-63.73,63.73c0,35.197,28.533,63.73,63.73,63.73c35.197,0,63.73-28.533,63.73-63.73
				C218.01,317.311,189.477,288.778,154.28,288.778L154.28,288.778z"/>
			<path style="fill:#407BFF;" d="M154.28,299.165c29.413,0,53.343,23.93,53.343,53.343s-23.93,53.343-53.343,53.343
				c-29.413,0-53.343-23.929-53.343-53.343S124.867,299.165,154.28,299.165 M154.28,291.508c-33.689,0-61,27.311-61,61
				c0,33.689,27.311,61,61,61c33.689,0,61-27.311,61-61C215.28,318.819,187.969,291.508,154.28,291.508L154.28,291.508z"/>
			<path style="fill:#263238;" d="M345.72,296.778c30.73,0,55.73,25,55.73,55.73c0,30.73-25,55.73-55.73,55.73
				c-30.73,0-55.73-25.001-55.73-55.73C289.99,321.778,314.991,296.778,345.72,296.778 M345.72,288.778
				c-35.197,0-63.73,28.533-63.73,63.73c0,35.197,28.533,63.73,63.73,63.73c35.197,0,63.73-28.533,63.73-63.73
				C409.45,317.311,380.917,288.778,345.72,288.778L345.72,288.778z"/>
			<path style="fill:#407BFF;" d="M345.72,299.165c29.413,0,53.343,23.93,53.343,53.343s-23.929,53.343-53.343,53.343
				c-29.413,0-53.343-23.929-53.343-53.343S316.307,299.165,345.72,299.165 M345.72,291.508c-33.689,0-61,27.311-61,61
				c0,33.689,27.311,61,61,61c33.689,0,61-27.311,61-61C406.72,318.819,379.41,291.508,345.72,291.508L345.72,291.508z"/>
			<path style="fill:#263238;" d="M239.507,364.778c5.426,0,9.84,4.414,9.84,9.84c0,5.426-4.414,9.84-9.84,9.84
				c-5.426,0-9.84-4.414-9.84-9.84C229.667,369.192,234.081,364.778,239.507,364.778 M239.507,359.778
				c-8.196,0-14.84,6.644-14.84,14.84c0,8.196,6.644,14.84,14.84,14.84c8.196,0,14.84-6.644,14.84-14.84
				C254.347,366.422,247.703,359.778,239.507,359.778L239.507,359.778z"/>
			<g>
				<circle style="fill:#263238;" cx="154.28" cy="352.508" r="9.831"/>
			</g>
			<g>
				<circle style="fill:#263238;" cx="345.72" cy="352.508" r="9.831"/>
			</g>
			<path style="fill:#263238;" d="M154.275,345.674L154.275,345.674c0.618,0,1.238,0.085,1.842,0.254l0.109,0.03l0.111,0.022
				l86.17,17.183c6.283,1.644,10.081,8.079,8.474,14.381c-1.339,5.25-6.053,8.917-11.462,8.917c-0.956,0-1.915-0.118-2.854-0.35
				l-84.111-26.991l-0.055-0.017l-0.055-0.016c-1.758-0.49-3.219-1.636-4.115-3.226c-0.896-1.59-1.119-3.433-0.628-5.19
				C148.521,347.729,151.225,345.674,154.275,345.674 M154.274,342.674c-4.301,0-8.251,2.845-9.464,7.191
				c-1.46,5.23,1.596,10.653,6.826,12.113l84.203,27.021c1.231,0.314,2.464,0.464,3.678,0.464c6.622,0,12.657-4.465,14.369-11.176
				c2.026-7.942-2.77-16.022-10.712-18.048l-86.252-17.199C156.039,342.792,155.149,342.674,154.274,342.674L154.274,342.674z"/>
			<path style="fill:#263238;" d="M239.507,377.618c-0.142,0-0.285-0.01-0.427-0.03c-1.041-0.15-1.928-0.834-2.337-1.803
				l-53.394-126.473c-0.645-1.526,0.07-3.286,1.597-3.931c1.529-0.646,3.287,0.071,3.931,1.597l51.458,121.886l81.964-100.34
				c1.048-1.283,2.938-1.473,4.221-0.425c1.283,1.048,1.474,2.938,0.425,4.221L241.83,376.516
				C241.256,377.219,240.4,377.618,239.507,377.618z"/>
			<path style="fill:#263238;" d="M154.278,354.508c-0.287,0-0.578-0.062-0.855-0.193c-0.999-0.473-1.424-1.665-0.952-2.664
				l40.124-84.723c0.473-0.998,1.665-1.425,2.664-0.952c0.999,0.473,1.424,1.666,0.952,2.664l-40.124,84.723
				C155.746,354.085,155.027,354.508,154.278,354.508z"/>
			<path style="fill:#263238;" d="M345.718,355.508c-1.337,0-2.556-0.899-2.904-2.254l-24.085-93.703l-124.055,11.222
				c-1.658,0.152-3.109-1.067-3.258-2.717s1.067-3.109,2.717-3.258l126.596-11.452c1.466-0.131,2.809,0.817,3.176,2.241
				l24.72,96.174c0.412,1.605-0.554,3.24-2.159,3.653C346.217,355.478,345.965,355.508,345.718,355.508z"/>
			<path style="fill:#263238;" d="M320.996,259.334c-1.466,0-2.748-1.076-2.965-2.569l-3.602-24.818
				c-0.238-1.64,0.898-3.162,2.538-3.4c1.635-0.242,3.162,0.897,3.4,2.538l3.602,24.818c0.238,1.64-0.898,3.162-2.537,3.4
				C321.285,259.324,321.14,259.334,320.996,259.334z"/>
			<path style="fill:#407BFF;" d="M307.064,241.68c-1.005,0-1.983-0.518-2.527-1.448c-0.816-1.394-0.348-3.186,1.047-4.002
				l18.754-10.978c1.395-0.817,3.186-0.348,4.002,1.047c0.816,1.394,0.348,3.186-1.047,4.002l-18.754,10.978
				C308.074,241.55,307.565,241.68,307.064,241.68z"/>
			<path style="fill:#407BFF;" d="M165.333,247.667c5.222,6.667,27.352-0.778,34.065-3c6.713-2.222,22.046,2.222,19.713-3
				c-2.333-5.222-35.884-3.163-40.555-5C168.667,232.778,156.367,236.22,165.333,247.667z"/>
			<g>
				<path style="fill:#263238;" d="M230.667,408.5c-0.177,0-0.356-0.023-0.535-0.073c-1.064-0.295-1.688-1.397-1.393-2.461
					l17.681-63.764c0.294-1.065,1.395-1.69,2.461-1.393c1.064,0.295,1.688,1.397,1.393,2.461l-17.681,63.764
					C232.348,407.92,231.544,408.5,230.667,408.5z"/>
				<path style="fill:#263238;" d="M253.308,344.736h-17.667c-1.104,0-2-0.896-2-2c0-1.105,0.896-2,2-2h17.667c1.104,0,2,0.895,2,2
					C255.308,343.84,254.412,344.736,253.308,344.736z"/>
				<path style="fill:#263238;" d="M243.373,408.5h-17.667c-1.105,0-2-0.896-2-2s0.895-2,2-2h17.667c1.104,0,2,0.896,2,2
					S244.477,408.5,243.373,408.5z"/>
			</g>
		</g>
		<polygon style="fill:#FF8B7B;" points="223.414,397.757 231.959,397.073 232.014,377.22 223.469,377.904 		"/>
		<path style="fill:#263238;" d="M233.365,395.135l-10.433,0.108c-0.35,0.004-0.65,0.25-0.723,0.592l-1.612,7.624
			c-0.167,0.791,0.461,1.531,1.269,1.509c3.356-0.092,5.803-0.314,10.031-0.358c2.601-0.027,10.448,0.163,14.04,0.125
			c3.513-0.036,4.024-3.594,2.551-3.9c-6.608-1.374-11.598-3.312-13.728-5.188C234.375,395.308,233.876,395.129,233.365,395.135z"/>
		<path style="fill:#FF8B7B;" d="M260.453,170.065c3.279,5.825,6.717,11.784,10.206,17.544c3.504,5.749,7.123,11.493,11.039,16.535
			c3.412,4.54,8.678,8.269,14.338,11.621c2.826,1.686,5.779,3.248,8.785,4.748c1.508,0.738,3.017,1.497,4.551,2.2l4.58,2.048
			l-1.792,6.171c-7.112-1.425-13.866-3.509-20.574-6.399c-3.324-1.479-6.639-3.12-9.837-5.176c-1.602-1.026-3.182-2.151-4.726-3.405
			c-0.772-0.625-1.519-1.316-2.265-2.016l-1.094-1.116c-0.365-0.376-0.635-0.702-0.958-1.057c-2.525-2.773-4.745-5.619-6.867-8.515
			c-2.145-2.881-4.136-5.821-6.072-8.785c-3.877-5.951-7.407-11.951-10.75-18.272L260.453,170.065z"/>
		<path style="fill:#407BFF;" d="M248.092,181.333c1.03,10.953,7.902,17.939,7.902,17.939l16.756-12.691
			c0,0-3.666-12.315-10.361-18.97C249.859,155.157,247.176,171.59,248.092,181.333z"/>
		<path style="opacity:0.2;" d="M253.015,179.583l-4.965,1.197c0.01,0.19,0.02,0.37,0.04,0.55c0.48,5.1,2.23,9.35,3.96,12.42
			C254.167,189.889,254.035,182.863,253.015,179.583z"/>
		<polygon style="opacity:0.2;" points="223.467,377.91 232.015,377.225 231.983,387.459 223.434,388.143 		"/>
		<path style="fill:#407BFF;" d="M211.487,157.477c-4.322,30.886-20.809,57.204-21.961,63.668
			c6.547,1.48,31.217,7.011,44.665,10.023c16.079-25.946,23.981-66.662,23.981-66.662s-2.555-1.553-6.156-3.322
			c-1.13-0.555-2.357-1.129-3.65-1.686c-0.713-0.313-1.443-0.61-2.188-0.903c-4.814-1.871-13.009-4.028-18.704-5.378
			c-1.193-0.28-2.419-0.539-3.609-0.771c-1.109-0.208-2.201-0.397-3.236-0.561c-0.49-0.078-0.969-0.151-1.435-0.219
			C215.454,151.12,212.01,153.734,211.487,157.477z"/>
		<path style="fill:#407BFF;" d="M215.39,169.89c-0.96,3.88-6.44,10.91-10.8,15.07c1.67-4.77,3.23-9.84,4.51-15.13L215.39,169.89z"
			/>
		<path style="opacity:0.2;" d="M215.39,169.89c-0.96,3.88-6.44,10.91-10.8,15.07c1.67-4.77,3.23-9.84,4.51-15.13L215.39,169.89z"/>
		<path style="fill:#FF8B7B;" d="M311.25,224.5l11.021-0.25l-0.818,6.85c0,0-6.355,3.067-11.276-1.198L311.25,224.5z"/>
		<polygon style="fill:#FF8B7B;" points="326.833,226.25 323.858,232.167 321.453,231.1 322.271,224.25 		"/>
		<path style="fill:#263238;" d="M226.067,127.989c-1.433,6.709,3.625,13.005,12.707,11.964
			C247.857,138.911,228.316,117.463,226.067,127.989z"/>
		<path style="fill:#FF8B7B;" d="M235.387,132.693c-0.551,6.356-2.544,17.719-7.909,20.524c2.336,4.191,5.53,9.177,12.603,11.483
			c7.073,2.306,7.238-2.967,6.097-6.104c-6.249-3.532-4.644-8.46-2.131-12.799L235.387,132.693z"/>
		<path style="opacity:0.2;" d="M238.916,138.038l5.127,7.751c-0.599,1.026-1.139,2.085-1.531,3.153
			c-2.457-1.108-5.043-4.186-5.245-7.291C237.141,139.72,238.198,138.05,238.916,138.038z"/>
		<path style="fill:#263238;" d="M253.282,116.792c4.381,0.057,3.539,8.75,0.993,10.875
			C251.729,129.792,248.501,116.729,253.282,116.792z"/>
		<path style="fill:#FF8B7B;" d="M232.107,124.463c0.147,8.492-0.199,13.47,3.887,18.006c6.146,6.822,16.771,3.404,19.165-4.96
			c2.154-7.529,1.552-20.152-6.589-23.888C240.548,109.94,231.96,115.971,232.107,124.463z"/>
		<path style="fill:#263238;" d="M231.583,130.75c4.333-3.5,6.92-7.853,5.509-11.417c4.491,1.667,20.603,2.083,19.133-4.75
			c-1.47-6.833-12.181-8.167-12.181-8.167s2.44,1.612,2.317,2.862c-5.528-1.973-11.985-2.112-14.256-1.612
			c1.618,1.111,1.77,1.875,1.77,1.875s-10.25,0.625-7.958,4C221.833,113.389,219,127.776,231.583,130.75z"/>
		<path style="fill:#FF8B7B;" d="M228.191,133.038c1.116,2,3.051,3.298,4.87,3.783c2.736,0.729,4.069-1.726,3.281-4.29
			c-0.71-2.308-2.988-5.468-5.72-5.064C227.929,127.866,226.915,130.751,228.191,133.038z"/>
		<g>
			<path style="fill:#407BFF;" d="M218.27,227.562c0,0,21.326,51.832,19.75,76.858c-1.726,27.406-2.352,78.802-2.352,78.802
				l-14.818,1.167c0,0-5.952-49.098-4.516-75.833c1.636-30.454-39.194-65.458-26.806-87.402
				C203.544,224.082,218.27,227.562,218.27,227.562z"/>
			<path style="opacity:0.3;fill:#FFFFFF;" d="M218.27,227.562c0,0,21.326,51.832,19.75,76.858
				c-1.726,27.406-2.352,78.802-2.352,78.802l-14.818,1.167c0,0-5.952-49.098-4.516-75.833
				c1.636-30.454-39.194-65.458-26.806-87.402C203.544,224.082,218.27,227.562,218.27,227.562z"/>
		</g>
		<polygon style="fill:#407BFF;" points="236.919,384.853 218.55,386.663 218.01,381.175 237.708,378.888 		"/>
		<path style="fill:#263238;" d="M244.848,127.397c-0.03,0.69,0.311,1.265,0.761,1.285c0.451,0.02,0.841-0.523,0.871-1.213
			s-0.31-1.265-0.761-1.285C245.269,126.164,244.879,126.707,244.848,127.397z"/>
		<path style="fill:#263238;" d="M252.643,127.74c-0.03,0.69,0.31,1.265,0.761,1.285c0.451,0.02,0.841-0.523,0.871-1.213
			c0.03-0.69-0.31-1.265-0.761-1.285C253.064,126.508,252.674,127.051,252.643,127.74z"/>
		<path style="fill:#FF5652;" d="M250.15,127.974c0,0,1.393,4.048,3.035,6.043c-1.27,1.085-3.322,0.473-3.322,0.473L250.15,127.974z
			"/>
		<path style="fill:#263238;" d="M246.875,136.207c-2.608-0.469-3.744-2.344-3.796-2.432c-0.057-0.096-0.025-0.22,0.071-0.277
			c0.096-0.057,0.22-0.025,0.278,0.071c0.013,0.022,1.342,2.199,4.36,2.332c0.112,0.005,0.199,0.1,0.194,0.211
			c-0.005,0.112-0.1,0.199-0.211,0.194C247.454,136.292,247.156,136.258,246.875,136.207z"/>
		<path style="fill:#263238;" d="M242.556,124.773c-0.066-0.012-0.131-0.041-0.186-0.087c-0.173-0.143-0.197-0.398-0.054-0.571
			c1.431-1.727,3.292-1.535,3.371-1.526c0.223,0.025,0.382,0.227,0.356,0.449c-0.025,0.222-0.225,0.381-0.447,0.357l0,0
			c-0.061-0.006-1.514-0.141-2.656,1.238C242.844,124.75,242.695,124.799,242.556,124.773z"/>
		<path style="fill:#263238;" d="M256.12,125.207c-0.129-0.023-0.245-0.109-0.301-0.238c-0.71-1.643-2.143-1.92-2.204-1.931
			c-0.219-0.04-0.367-0.25-0.328-0.469c0.039-0.22,0.247-0.367,0.467-0.329c0.079,0.016,1.919,0.35,2.809,2.408
			c0.089,0.205-0.006,0.444-0.211,0.533C256.276,125.213,256.196,125.221,256.12,125.207z"/>
		<g>
			<path style="fill:#407BFF;" d="M236.21,396.601c-0.791,0.008-1.647-0.147-2.243-0.284c-0.08-0.018-0.14-0.083-0.154-0.163
				c-0.014-0.08,0.022-0.161,0.09-0.205c0.31-0.198,3.053-1.922,4.004-1.446c0.148,0.074,0.329,0.233,0.353,0.569
				c0.033,0.453-0.104,0.815-0.408,1.076C237.469,396.477,236.861,396.594,236.21,396.601z M234.553,396.025
				c1.456,0.276,2.573,0.212,3.037-0.186c0.204-0.175,0.291-0.416,0.268-0.738c-0.012-0.158-0.076-0.209-0.131-0.237
				C237.232,394.617,235.668,395.365,234.553,396.025z"/>
			<path style="fill:#407BFF;" d="M234.015,396.322c-0.038,0-0.077-0.01-0.111-0.032c-0.063-0.04-0.099-0.111-0.094-0.185
				c0.007-0.105,0.186-2.576,1.172-3.399c0.257-0.214,0.547-0.305,0.861-0.27c0,0,0,0,0,0c0.485,0.055,0.616,0.352,0.65,0.525
				c0.191,0.952-1.502,2.845-2.382,3.335C234.082,396.313,234.049,396.321,234.015,396.322z M235.707,392.835
				c-0.167,0.002-0.319,0.062-0.464,0.182c-0.632,0.527-0.891,1.969-0.983,2.692c0.873-0.677,1.949-2.105,1.837-2.668
				c-0.01-0.052-0.035-0.172-0.298-0.202l0,0C235.768,392.836,235.737,392.835,235.707,392.835z"/>
		</g>
		<g>
			<path style="fill:#FF8B7B;" d="M222.043,165.62c-0.886,0.421-1.608,0.746-2.402,1.097c-0.776,0.348-1.556,0.666-2.336,0.984
				c-1.561,0.631-3.128,1.233-4.706,1.807c-3.152,1.162-6.362,2.17-9.626,3.062c-6.534,1.753-13.294,3.04-20.43,3.193
				c-1.779,0.05-3.592-0.029-5.416-0.171c-0.919-0.095-1.83-0.17-2.759-0.326l-0.693-0.105l-0.346-0.053l-0.277-0.051l-0.358-0.077
				c-0.95-0.217-2.034-0.603-3.075-1.31c-1.036-0.689-1.935-1.664-2.525-2.648c-0.605-0.991-0.92-1.958-1.1-2.791
				c-0.359-1.699-0.276-2.993-0.159-4.159c0.283-2.292,0.859-4.101,1.509-5.827c1.3-3.414,2.905-6.4,4.633-9.288
				c0.865-1.44,1.768-2.842,2.724-4.207c0.953-1.377,1.891-2.703,2.97-4.051l5.521,3.287l-1.712,4.361l-1.618,4.387
				c-1.032,2.902-1.986,5.824-2.584,8.545c-0.279,1.343-0.478,2.669-0.446,3.581c0.01,0.43,0.113,0.764,0.142,0.625
				c0.005-0.053-0.017-0.261-0.189-0.576c-0.162-0.306-0.493-0.691-0.857-0.941c-0.374-0.257-0.684-0.377-0.852-0.431l-0.063-0.018
				l-0.032-0.006l0.052,0.004l0.251,0.02l0.502,0.042c0.661,0.073,1.353,0.08,2.034,0.11c1.38,0.022,2.78-0.018,4.207-0.127
				c2.847-0.195,5.755-0.638,8.667-1.254c2.917-0.585,5.837-1.349,8.747-2.215c2.914-0.85,5.807-1.842,8.689-2.87
				c1.439-0.52,2.87-1.067,4.285-1.636l2.11-0.861l2.002-0.848L222.043,165.62z"/>
			<path style="fill:#407BFF;" d="M222.167,168.491c-5.576,5.989-22.5,10.059-22.5,10.059l-6.699-19.319
				c0,0,11.069-6.63,21.603-7.561C230.741,150.24,227.932,162.299,222.167,168.491z"/>
			<path style="fill:#FF8B7B;" d="M183.092,144.522l4.287-7.556l-10.891-0.937c0,0-2.221,7.243,1.485,8.849L183.092,144.522z"/>
			<polygon style="fill:#FF8B7B;" points="185.485,128.516 177.333,129.536 176.488,136.029 187.38,136.966 			"/>
		</g>
	</g>
</g>
</svg>
