<?xml version="1.0" encoding="utf-8"?>
<!-- Generator: Adobe Illustrator 27.5.0, SVG Export Plug-In . SVG Version: 6.00 Build 0)  -->
<svg version="1.1" xmlns="http://www.w3.org/2000/svg" xmlns:xlink="http://www.w3.org/1999/xlink" x="0px" y="0px"
	 viewBox="0 0 500 500" style="enable-background:new 0 0 500 500;" xml:space="preserve">
<g id="Background_complete">
	<path style="fill:#F0F0F0;" d="M487.169,374.041c-2.11-2.893-45.283-118.38-45.283-118.38l-94.831-145.459l-44.9,4.373
		l-95.492,136.758l-36.884,37.111l-60.959-47.149L57.534,260.24L12.831,374.326L487.169,374.041z"/>
	<g>
		<g>
			<g>
				<g>
					<path style="fill:#E0E0E0;" d="M444.708,330.198H263.962c-3.232,0-5.862-2.63-5.862-5.862V61.062
						c0-3.232,2.63-5.862,5.862-5.862h180.746c3.232,0,5.862,2.629,5.862,5.862v263.273
						C450.57,327.568,447.94,330.198,444.708,330.198z M263.962,55.45c-3.095,0-5.612,2.518-5.612,5.612v263.273
						c0,3.095,2.518,5.612,5.612,5.612h180.746c3.095,0,5.612-2.518,5.612-5.612V61.062c0-3.094-2.518-5.612-5.612-5.612H263.962z"
						/>
				</g>
			</g>
			<g>
				<g>
					<path style="fill:#E0E0E0;" d="M236.28,330.198H55.534c-3.232,0-5.862-2.63-5.862-5.862V61.062
						c0-3.232,2.629-5.862,5.862-5.862H236.28c3.232,0,5.862,2.629,5.862,5.862v263.273
						C242.143,327.568,239.513,330.198,236.28,330.198z M55.534,55.45c-3.094,0-5.612,2.518-5.612,5.612v263.273
						c0,3.095,2.518,5.612,5.612,5.612H236.28c3.095,0,5.612-2.518,5.612-5.612V61.062c0-3.094-2.518-5.612-5.612-5.612H55.534z"/>
				</g>
			</g>
		</g>
		<g>
			<g>
				<rect x="0.788" y="374.076" style="fill:#E0E0E0;" width="500" height="0.25"/>
			</g>
		</g>
		<g>
			<rect x="52.46" y="409.531" style="fill:#E0E0E0;" width="16.06" height="0.25"/>
			<rect x="171.14" y="406.821" style="fill:#E0E0E0;" width="53.53" height="0.25"/>
			<rect x="69.52" y="418.821" style="fill:#E0E0E0;" width="36.25" height="0.25"/>
			<rect x="379.14" y="406.691" style="fill:#E0E0E0;" width="43.19" height="0.25"/>
			<rect x="431.24" y="406.691" style="fill:#E0E0E0;" width="6.33" height="0.25"/>
			<rect x="317" y="412.921" style="fill:#E0E0E0;" width="53.89" height="0.25"/>
		</g>
	</g>
	<path style="fill:#E0E0E0;" d="M240.069,65.807c0-3.623,2.937-6.561,6.561-6.561l0,0c0.636-0.003,1.269,0.092,1.876,0.28
		c-0.094-0.668-0.141-1.342-0.14-2.016c0-7.671,6.219-13.89,13.89-13.89c0.856,0,1.71,0.078,2.552,0.233
		c3.487-5.729,10.957-7.546,16.685-4.06c3.568,2.172,5.769,6.024,5.828,10.201h0.21c6.182,0.2,11.031,5.372,10.831,11.554
		c-0.19,5.901-4.93,10.641-10.831,10.831h-41.088C242.886,72.284,240.055,69.365,240.069,65.807z"/>
	<path style="fill:#E0E0E0;" d="M374.855,108.736c0-2.531,2.052-4.583,4.583-4.583l0,0c0.444-0.002,0.886,0.064,1.311,0.195
		c-0.065-0.467-0.098-0.937-0.098-1.408c0-5.359,4.345-9.704,9.704-9.704c0.598,0,1.195,0.055,1.783,0.163
		c2.436-4.002,7.655-5.272,11.657-2.836c2.493,1.517,4.031,4.209,4.072,7.126h0.147c4.319,0.139,7.707,3.753,7.567,8.072
		c-0.133,4.123-3.444,7.434-7.567,7.567h-28.705C376.823,113.261,374.845,111.222,374.855,108.736z"/>
	<path style="fill:#E0E0E0;" d="M71.198,118.148c0-3.109,2.521-5.63,5.63-5.63l0,0c0.546-0.002,1.089,0.078,1.61,0.24
		c-0.08-0.573-0.12-1.151-0.12-1.73c0-6.583,5.337-11.92,11.92-11.92c0.735,0,1.468,0.067,2.19,0.2
		c2.992-4.916,9.402-6.476,14.318-3.484c3.062,1.864,4.951,5.17,5.002,8.754h0.18c5.305,0.171,9.466,4.61,9.295,9.915
		c-0.164,5.064-4.231,9.132-9.295,9.295h-35.26C73.615,123.707,71.186,121.202,71.198,118.148z"/>
	<path style="fill:#E0E0E0;" d="M485.65,373.72c-6.034,1.837-11.741,4.612-16.91,8.225c2.659-16.063-5.53-28.715-5.53-28.715
		s-11.096,10.012-16.88,23.53c-1.711-2.036-3.655-3.866-5.79-5.451c0.708-2.659,1.21-5.368,1.502-8.104
		c-7.709,2.343-15,5.887-21.604,10.502c3.392-20.514-7.068-36.673-7.068-36.673s-14.149,12.804-21.55,30.096
		c-2.738-3.284-5.968-6.124-9.576-8.419c0,0-7.45,12.659-8.164,26.389c-4.944-1.093-10.024-1.434-15.069-1.011
		c0,0,0.297,16.353,11.072,25.257c1.022,0.842,2.11,1.601,3.252,2.271h98.495c4.866-3.261,9.134-7.337,12.616-12.047
		c-2.818-0.842-5.738-1.292-8.679-1.339C484.572,386.984,485.65,373.72,485.65,373.72z"/>
	<path style="fill:#F5F5F5;" d="M383.765,369.961c-6.851,2.08-13.33,5.228-19.2,9.327c3.028-18.225-6.275-32.579-6.275-32.579
		s-12.598,11.362-19.133,26.704c-1.946-2.298-4.151-4.363-6.572-6.154c0.801-3.017,1.372-6.091,1.708-9.194
		c-8.751,2.658-17.027,6.681-24.524,11.92c3.852-23.276-8.013-41.616-8.013-41.616s-16.068,14.536-24.439,34.105
		c-3.107-3.728-6.772-6.952-10.866-9.557c0,0-8.479,14.373-9.285,29.975c-5.606-1.26-11.37-1.669-17.098-1.211
		c0,0,0.333,18.546,12.562,28.66c1.16,0.956,2.393,1.818,3.689,2.58h111.783c5.523-3.699,10.367-8.324,14.318-13.67
		c-3.2-0.955-6.516-1.466-9.854-1.52C382.542,385.012,383.765,369.961,383.765,369.961z"/>
</g>
<g id="Background_simple" style="display:none;">
	<g style="display:inline;">
		<g>
			<path style="fill:#407BFF;" d="M408.34,100.115c-17.383-22.893-42.932-39.451-70.928-45.969l-8.803-2.03
				c-41.766-10.605-86.928-3.87-125.874,14.57s-71.944,48.022-98.281,82.128c-18.804,24.35-34.823,52.245-37.734,82.872
				c-2.911,30.627,9.954,64.242,37.061,78.792c26.267,14.1,58.818,7.753,86.461-3.411c45.099-18.214,87.061-48.636,135.636-51.107
				c22.093-1.124,45.257,3.579,65.738-4.781c26.729-10.909,40.71-41.553,41.956-70.396
				C434.812,152.064,425.724,123.008,408.34,100.115z"/>
		</g>
		<g style="opacity:0.9;">
			<path style="fill:#FFFFFF;" d="M408.34,100.115c-17.383-22.893-42.932-39.451-70.928-45.969l-8.803-2.03
				c-41.766-10.605-86.928-3.87-125.874,14.57s-71.944,48.022-98.281,82.128c-18.804,24.35-34.823,52.245-37.734,82.872
				c-2.911,30.627,9.954,64.242,37.061,78.792c26.267,14.1,58.818,7.753,86.461-3.411c45.099-18.214,87.061-48.636,135.636-51.107
				c22.093-1.124,45.257,3.579,65.738-4.781c26.729-10.909,40.71-41.553,41.956-70.396
				C434.812,152.064,425.724,123.008,408.34,100.115z"/>
		</g>
	</g>
</g>
<g id="Shadow">
	<g>
		<g>
			<path style="fill:#F5F5F5;" d="M489.733,462.189c0,3.387-107.332,6.132-239.733,6.132s-239.733-2.745-239.733-6.132
				c0-3.387,107.332-6.132,239.733-6.132S489.733,458.802,489.733,462.189z"/>
		</g>
	</g>
</g>
<g id="Plants">
	<g>
		<path style="fill:#407BFF;" d="M463.038,414.771c-0.577-3.866-11.741,0.526-11.741,0.526s19.09-13.693,14.015-17.793
			c-5.076-4.1-17.305,10.879-17.305,10.879s22.158-31.477,13.614-34.343c-8.543-2.866-20.067,31.736-20.067,31.736
			s6.49-25.943,0.219-24.783c-6.271,1.16-8.022,25.765-8.022,25.765s-3.897-11.408-6.271-7.34
			c-2.374,4.068,7.308,27.242,7.308,27.242C445.458,424.477,463.615,418.636,463.038,414.771z"/>
		<g>
			
				<path style="opacity:0.3;fill:none;stroke:#000000;stroke-width:0.25;stroke-linecap:round;stroke-linejoin:round;stroke-miterlimit:10;" d="
				M434.683,426.867c0,0,7.47-15.033,12.841-25.039"/>
			
				<line style="opacity:0.3;fill:none;stroke:#000000;stroke-width:0.25;stroke-linecap:round;stroke-linejoin:round;stroke-miterlimit:10;" x1="439.625" y1="416.936" x2="439.515" y2="406.242"/>
		</g>
	</g>
	<g>
		<path style="fill:#407BFF;" d="M77.604,405.758c-2.782-2.051-6.997,7.686-6.997,7.686s3.332-20.509-2.405-19.887
			c-5.737,0.622-3.982,17.634-3.982,17.634s-5.899-33.529-13.026-29.963c-7.128,3.565,7.366,32.38,7.366,32.38
			s-12.208-20.257-15.394-15.603c-3.186,4.654,11.14,21.105,11.14,21.105s-9.581-4.677-8.513-0.65
			c1.068,4.026,21.633,12.42,21.633,12.42C72.716,422.832,80.386,407.809,77.604,405.758z"/>
		<g>
			
				<path style="opacity:0.3;fill:none;stroke:#000000;stroke-width:0.25;stroke-linecap:round;stroke-linejoin:round;stroke-miterlimit:10;" d="
				M67.489,431.076c0,0-4.759-14.062-7.678-23.673"/>
			
				<line style="opacity:0.3;fill:none;stroke:#000000;stroke-width:0.25;stroke-linecap:round;stroke-linejoin:round;stroke-miterlimit:10;" x1="64.35" y1="421.781" x2="57.58" y2="415.177"/>
		</g>
	</g>
</g>
<g id="Rock">
	<g>
		<g>
			<polygon style="fill:#263238;" points="335.949,365.065 279.257,350.76 157.216,400.744 43.178,435.673 30.646,462.189 
				481.773,460.582 456.663,435.673 			"/>
			<polygon style="opacity:0.5;fill:#FFFFFF;" points="335.949,365.065 279.257,350.76 157.216,400.744 43.178,435.673 
				30.646,462.189 481.773,460.582 456.663,435.673 			"/>
			<polygon style="opacity:0.5;fill:#FFFFFF;" points="157.216,400.744 244.391,379.845 279.257,350.76 			"/>
			<polygon style="opacity:0.3;" points="335.949,365.065 375.742,400.744 456.663,435.673 			"/>
		</g>
		<polygon style="opacity:0.3;" points="43.178,435.673 157.216,400.744 244.391,379.845 293.529,461.252 30.646,462.189 		"/>
	</g>
</g>
<g id="Lines">
	<g>
		<path style="fill:none;stroke:#263238;stroke-width:0.5;stroke-linecap:round;stroke-miterlimit:10;" d="M335.875,354.474
			c14.172-10.685,28.343-21.369,42.515-32.054"/>
		<path style="fill:none;stroke:#263238;stroke-width:0.5;stroke-linecap:round;stroke-miterlimit:10;" d="M355.575,332.451
			c8.174-6.603,16.348-13.206,24.522-19.809"/>
	</g>
	<g>
		<path style="fill:none;stroke:#263238;stroke-width:0.5;stroke-linecap:round;stroke-miterlimit:10;" d="M70.012,303.787
			c14.172-10.685,28.343-21.369,42.515-32.054"/>
		<path style="fill:none;stroke:#263238;stroke-width:0.5;stroke-linecap:round;stroke-miterlimit:10;" d="M89.713,281.764
			c8.174-6.603,16.348-13.206,24.522-19.809"/>
	</g>
</g>
<g id="Character">
	<g>
		<g>
			<g>
				<polygon style="fill:#CE7A63;" points="246.23,280.327 255.338,280.046 256.458,266.667 243.805,261.54 				"/>
				<polygon style="fill:#E0E0E0;" points="246.135,279.438 243.359,267.761 256.458,266.667 255.522,278.203 250.708,281.36 				
					"/>
				<g>
					<path style="fill:#407BFF;" d="M255.967,274.459l-2.981,1.263c-0.675,0.286-1.154,0.892-1.322,1.605
						c-0.724,3.076-2.392,2.736-5.197,1.322c-1.247,0.365-0.989,1.865-0.931,2.273l1.207,9.051c0.093,0.759,0.784,1.299,1.543,1.205
						c0.135-0.017,0.267-0.053,0.391-0.108c3.62-1.534,5.333-2.26,9.839-4.17l13.78-5.84c3.757-1.592,2.931-5.708,1.235-5.402
						c-7.61,1.411-13.405,1.452-16.414,0.339C256.568,275.812,256.865,275.373,255.967,274.459z"/>
					
						<path style="fill:none;stroke:#263238;stroke-width:0.5;stroke-linecap:round;stroke-linejoin:round;stroke-miterlimit:10;" d="
						M259.011,275.883c-0.968,0.575-1.66,1.592-1.841,2.704"/>
					
						<path style="fill:none;stroke:#263238;stroke-width:0.5;stroke-linecap:round;stroke-linejoin:round;stroke-miterlimit:10;" d="
						M261.455,276.492c-0.968,0.575-1.66,1.592-1.841,2.704"/>
					
						<path style="fill:none;stroke:#263238;stroke-width:0.5;stroke-linecap:round;stroke-linejoin:round;stroke-miterlimit:10;" d="
						M264.257,276.688c-0.967,0.575-1.66,1.593-1.841,2.704"/>
					<path style="opacity:0.3;" d="M255.967,274.459l-2.981,1.263c-0.675,0.286-1.154,0.892-1.322,1.605
						c-0.724,3.076-2.392,2.736-5.197,1.322c-1.247,0.365-0.989,1.865-0.931,2.273l1.207,9.051c0.093,0.759,0.784,1.299,1.543,1.205
						c0.135-0.017,0.267-0.053,0.391-0.108c3.62-1.534,5.333-2.26,9.839-4.17l13.78-5.84c3.757-1.592,2.931-5.708,1.235-5.402
						c-7.61,1.411-13.405,1.452-16.414,0.339C256.568,275.812,256.865,275.373,255.967,274.459z"/>
				</g>
			</g>
			<path style="fill:#CE7A63;" d="M250.242,195.327c-9.302-6.078-51.748-23.202-51.748-23.202l-29.604,5.388
				c0,0-9.292,6.751-0.559,16.441c8.733,9.691,44.861,12.123,63.266,17.237c0.823,16.507,10.888,51.054,12.038,56.546l12.824-1.072
				C256.458,266.667,255.049,206.115,250.242,195.327z"/>
			<path style="fill:#263238;" d="M198.494,172.126l-29.604,5.388c0,0-9.292,6.751-0.559,16.441s42.979,14.824,61.383,19.938
				l21.725-20.199C242.137,187.615,198.494,172.126,198.494,172.126z"/>
			<polygon style="opacity:0.3;" points="207.178,207.566 200.461,197.3 213.96,208.968 			"/>
		</g>
		<g>
			<path style="fill:#CE7A63;" d="M269.88,150.208c-0.498-1.175-4.269-2.441-6.243-3.176c-1.462-0.544-5.135,1.572-6.945,2.708
				l-27.965-8.127c0,0-13.28-16.119-13.467-16.68l-9.031,12.246l17.716,17.92l28.888,1.372l-0.042,0.459
				c0,0,4.067,0.921,5.418,1.273c1.35,0.352,5.74,3.296,5.681,1.196c-0.059-2.1-1.423-1.615-2.738-2.536
				c-1.315-0.921,0.481-2.791,1.197-3.279c0.717-0.489,1.595,0.71,2.49,1.624c0.896,0.914-0.973,1.521-0.973,1.521
				s-0.316,0.781,0.788,1.422c1.103,0.641,2.823-1.843,4.009-2.531c1.187-0.688,0.074-1.787,0.074-1.787l1.401-1.055
				C270.137,152.779,270.378,151.383,269.88,150.208z"/>
			<path style="opacity:0.3;" d="M269.88,150.208c-0.498-1.175-4.269-2.441-6.243-3.176c-1.462-0.544-5.135,1.572-6.945,2.708
				l-27.965-8.127c0,0-13.28-16.119-13.467-16.68l-9.031,12.246l17.716,17.92l28.888,1.372l-0.042,0.459
				c0,0,4.067,0.921,5.418,1.273c1.35,0.352,5.74,3.296,5.681,1.196c-0.059-2.1-1.423-1.615-2.738-2.536
				c-1.315-0.921,0.481-2.791,1.197-3.279c0.717-0.489,1.595,0.71,2.49,1.624c0.896,0.914-0.973,1.521-0.973,1.521
				s-0.316,0.781,0.788,1.422c1.103,0.641,2.823-1.843,4.009-2.531c1.187-0.688,0.074-1.787,0.074-1.787l1.401-1.055
				C270.137,152.779,270.378,151.383,269.88,150.208z"/>
		</g>
		<g>
			<path style="fill:#263238;" d="M257.756,164.871c1.186-1.231,2.375-2.461,3.62-3.634c1.245-1.173,2.543-2.287,3.842-3.398
				c0.557-0.477,0.879-1.412,0.879-2.121c0-0.736-0.327-1.615-0.879-2.121c-0.572-0.525-1.322-0.914-2.121-0.879
				c-0.83,0.037-1.489,0.338-2.121,0.879c-1.299,1.111-2.598,2.225-3.842,3.398c-1.245,1.173-2.433,2.403-3.62,3.634
				c-0.54,0.561-0.879,1.337-0.879,2.121c0,0.736,0.327,1.615,0.879,2.121C254.693,165.954,256.593,166.079,257.756,164.871
				L257.756,164.871z"/>
		</g>
		<g>
			<g>
				<g>
					<path style="fill:none;stroke:#E0E0E0;stroke-miterlimit:10;" d="M277.415,254.988c0,0,54.997,3.891,55.574,2.983
						c0.576-0.908-32.315-44.516-32.315-44.516"/>
					<path style="fill:none;stroke:#E0E0E0;stroke-miterlimit:10;" d="M346.701,205.49c0,0-14.43,51.68-13.713,52.48
						c0.717,0.801,50.021-16.187,50.021-16.187"/>
					<path style="fill:none;stroke:#E0E0E0;stroke-miterlimit:10;" d="M377.226,288.29l-44.316-26.994
						c-0.989,0.422,2.28,47.405,2.28,47.405"/>
					<line style="fill:none;stroke:#E0E0E0;stroke-miterlimit:10;" x1="293.62" y1="296.94" x2="332.803" y2="258.19"/>
				</g>
				<g>
					<path style="fill:none;stroke:#E0E0E0;stroke-miterlimit:10;" d="M112.407,324.915c0,0,54.997,3.891,55.574,2.983
						c0.576-0.908-32.315-44.516-32.315-44.516"/>
					<path style="fill:none;stroke:#E0E0E0;stroke-miterlimit:10;" d="M181.694,275.418c0,0-14.43,51.68-13.713,52.48
						c0.717,0.801,50.021-16.187,50.021-16.187"/>
					<path style="fill:none;stroke:#E0E0E0;stroke-miterlimit:10;" d="M212.219,358.218l-44.316-26.994
						c-0.989,0.422,2.28,47.405,2.28,47.405"/>
					<line style="fill:none;stroke:#E0E0E0;stroke-miterlimit:10;" x1="128.613" y1="366.868" x2="167.796" y2="328.117"/>
				</g>
				<g>
					<path style="fill:#263238;" d="M266.364,175.347c-0.775,0-1.54-0.359-2.028-1.036l-8.056-11.154
						c-0.809-1.12-0.557-2.682,0.563-3.491c1.119-0.809,2.683-0.556,3.49,0.563l8.056,11.154c0.809,1.12,0.557,2.682-0.563,3.491
						C267.384,175.193,266.871,175.347,266.364,175.347z"/>
				</g>
				<path style="fill:#263238;" d="M245.242,341.389c-1.096,0.14-2.074-0.452-2.185-1.323c-0.018-0.141-0.012-0.285,0.018-0.428
					l11.173-52.453c0.236-0.87,1.299-1.463,2.375-1.325c1.008,0.13,1.681,0.86,1.551,1.683l-11.177,52.421
					C246.86,340.686,246.14,341.269,245.242,341.389z"/>
				<path style="fill:#263238;" d="M265.11,287.68l-16.434,6.494c-1.027,0.406-2.189-0.098-2.595-1.125
					c-0.406-1.027,0.098-2.189,1.125-2.595l16.433-6.494c1.027-0.406,2.189,0.098,2.595,1.125
					C266.641,286.113,266.137,287.275,265.11,287.68z"/>
				<path style="fill:#263238;" d="M382.75,228.004c-0.669-1.176-1.378-2.322-2.121-3.441c0.579-0.716,0.578-1.763-0.053-2.475
					l-8.498-9.593c-0.637-0.719-1.689-0.84-2.473-0.335c-1.024-0.87-2.072-1.711-3.151-2.509c0.312-0.876-0.045-1.871-0.888-2.328
					l-11.267-6.108c-0.841-0.456-1.868-0.214-2.432,0.522c-1.259-0.471-2.532-0.907-3.824-1.292
					c-0.017-0.921-0.69-1.723-1.632-1.863l-12.676-1.886c-0.937-0.139-1.812,0.426-2.1,1.295c-1.342-0.01-2.691,0.029-4.045,0.112
					c-0.333-0.855-1.238-1.374-2.168-1.184l-12.557,2.563c-0.931,0.19-1.56,1.024-1.53,1.942c-1.278,0.454-2.538,0.94-3.769,1.475
					c-0.606-0.684-1.63-0.859-2.436-0.364l-10.923,6.703c-0.812,0.498-1.117,1.502-0.769,2.356
					c-1.038,0.861-2.043,1.756-3.016,2.682c-0.807-0.453-1.845-0.273-2.439,0.475l-7.972,10.035
					c-0.595,0.75-0.535,1.803,0.092,2.487c-0.68,1.158-1.31,2.344-1.911,3.546c-0.919-0.158-1.84,0.366-2.144,1.277l-4.059,12.156
					c-0.301,0.902,0.108,1.865,0.921,2.298c-0.245,1.321-0.444,2.654-0.598,3.998c-0.902,0.178-1.572,0.98-1.546,1.93l0.344,12.811
					c0.026,0.951,0.74,1.716,1.652,1.844c0.119,0.704,0.235,1.408,0.38,2.113c0.128,0.622,0.283,1.232,0.43,1.846
					c-0.79,0.475-1.148,1.459-0.798,2.345l4.705,11.921c0.348,0.882,1.277,1.358,2.175,1.17c0.669,1.176,1.378,2.322,2.121,3.442
					c-0.579,0.716-0.578,1.763,0.053,2.475l8.498,9.593c0.637,0.719,1.689,0.84,2.473,0.335c1.024,0.87,2.072,1.711,3.151,2.509
					c-0.312,0.876,0.045,1.871,0.888,2.328l11.267,6.108c0.841,0.456,1.868,0.214,2.432-0.522c1.259,0.471,2.531,0.907,3.824,1.292
					c0.017,0.921,0.69,1.723,1.631,1.863l12.676,1.886c0.937,0.139,1.812-0.426,2.1-1.295c1.342,0.01,2.691-0.029,4.045-0.112
					c0.333,0.855,1.238,1.374,2.168,1.184l12.557-2.563c0.93-0.19,1.56-1.024,1.53-1.942c1.278-0.454,2.538-0.94,3.769-1.475
					c0.606,0.684,1.63,0.859,2.436,0.364l10.923-6.703c0.812-0.498,1.117-1.502,0.769-2.356c1.038-0.861,2.043-1.756,3.016-2.683
					c0.807,0.453,1.845,0.273,2.439-0.475l7.972-10.035c0.595-0.75,0.535-1.803-0.093-2.487c0.68-1.158,1.31-2.344,1.912-3.546
					c0.918,0.158,1.84-0.366,2.144-1.277l4.059-12.156c0.301-0.902-0.108-1.866-0.921-2.298c0.245-1.321,0.444-2.654,0.598-3.998
					c0.902-0.178,1.572-0.98,1.546-1.93l-0.344-12.811c-0.025-0.951-0.74-1.716-1.651-1.844c-0.119-0.704-0.235-1.408-0.38-2.113
					c-0.128-0.622-0.283-1.232-0.43-1.846c0.79-0.475,1.148-1.459,0.798-2.345l-4.705-11.921
					C384.577,228.292,383.648,227.816,382.75,228.004z M341.109,305.279c-26.471,5.462-52.458-11.636-57.921-38.107
					c-5.463-26.478,11.636-52.459,38.107-57.92c26.478-5.463,52.459,11.636,57.92,38.107
					C384.679,273.836,367.58,299.817,341.109,305.279z"/>
				<path style="fill:#263238;" d="M220.346,300.043c-0.669-1.176-1.378-2.322-2.121-3.441c0.579-0.716,0.578-1.763-0.053-2.476
					l-8.498-9.593c-0.637-0.719-1.689-0.84-2.473-0.335c-1.024-0.87-2.072-1.711-3.151-2.509c0.312-0.876-0.045-1.871-0.888-2.328
					l-11.267-6.108c-0.841-0.456-1.868-0.214-2.432,0.522c-1.259-0.471-2.532-0.907-3.824-1.292
					c-0.017-0.921-0.69-1.723-1.632-1.863l-12.676-1.886c-0.937-0.139-1.812,0.426-2.1,1.295c-1.342-0.01-2.691,0.029-4.045,0.112
					c-0.333-0.855-1.238-1.374-2.168-1.184l-12.557,2.563c-0.93,0.19-1.56,1.024-1.53,1.942c-1.278,0.454-2.538,0.94-3.769,1.475
					c-0.606-0.684-1.63-0.858-2.436-0.364l-10.923,6.703c-0.812,0.498-1.117,1.502-0.769,2.356
					c-1.038,0.861-2.043,1.756-3.016,2.682c-0.807-0.453-1.845-0.273-2.439,0.475l-7.972,10.035
					c-0.595,0.75-0.535,1.803,0.092,2.487c-0.68,1.158-1.31,2.344-1.911,3.546c-0.918-0.158-1.84,0.366-2.144,1.277l-4.059,12.156
					c-0.301,0.902,0.108,1.865,0.921,2.298c-0.245,1.321-0.444,2.654-0.598,3.998c-0.902,0.178-1.572,0.98-1.546,1.93l0.344,12.811
					c0.026,0.951,0.74,1.716,1.651,1.844c0.119,0.704,0.235,1.408,0.38,2.113c0.128,0.622,0.283,1.232,0.43,1.846
					c-0.79,0.475-1.148,1.459-0.799,2.345l4.705,11.921c0.348,0.882,1.277,1.358,2.175,1.17c0.669,1.176,1.378,2.322,2.121,3.442
					c-0.579,0.716-0.578,1.763,0.053,2.475l8.498,9.593c0.637,0.719,1.689,0.84,2.472,0.335c1.024,0.87,2.072,1.711,3.151,2.509
					c-0.312,0.876,0.045,1.871,0.888,2.328l11.267,6.108c0.841,0.456,1.868,0.214,2.432-0.522c1.259,0.471,2.531,0.907,3.824,1.292
					c0.017,0.921,0.69,1.723,1.631,1.863l12.676,1.886c0.937,0.139,1.812-0.426,2.1-1.295c1.342,0.01,2.691-0.029,4.045-0.112
					c0.333,0.855,1.238,1.374,2.168,1.184l12.557-2.563c0.93-0.19,1.56-1.024,1.53-1.942c1.278-0.454,2.538-0.94,3.769-1.475
					c0.606,0.684,1.63,0.859,2.436,0.364l10.923-6.703c0.812-0.498,1.117-1.502,0.769-2.356c1.038-0.861,2.043-1.756,3.016-2.683
					c0.807,0.453,1.845,0.273,2.439-0.475l7.972-10.035c0.595-0.75,0.535-1.803-0.092-2.487c0.68-1.158,1.31-2.344,1.912-3.546
					c0.918,0.158,1.84-0.366,2.144-1.277l4.059-12.156c0.301-0.902-0.108-1.866-0.921-2.298c0.245-1.321,0.444-2.654,0.598-3.998
					c0.902-0.178,1.572-0.98,1.546-1.93l-0.344-12.811c-0.026-0.951-0.74-1.716-1.651-1.844c-0.119-0.704-0.235-1.408-0.38-2.113
					c-0.128-0.622-0.283-1.232-0.43-1.846c0.79-0.475,1.148-1.459,0.798-2.345l-4.705-11.921
					C222.173,300.331,221.244,299.856,220.346,300.043z M178.705,377.318c-26.471,5.462-52.458-11.636-57.92-38.107
					c-5.463-26.478,11.636-52.459,38.107-57.92c26.478-5.463,52.459,11.636,57.92,38.107
					C222.275,345.876,205.176,371.856,178.705,377.318z"/>
				<path style="fill:#263238;" d="M248.437,308.881c5.004-2.121,10.779,0.217,12.9,5.221c2.12,5.004-0.217,10.779-5.221,12.9
					c-5.004,2.121-10.779-0.217-12.899-5.221l0,0C241.102,316.777,243.438,311.006,248.437,308.881 M246.486,304.277
					c-7.546,3.198-11.071,11.908-7.873,19.454c3.198,7.546,11.908,11.071,19.454,7.873c7.546-3.198,11.071-11.908,7.873-19.454l0,0
					c-3.191-7.543-11.892-11.072-19.436-7.881C246.498,304.272,246.492,304.275,246.486,304.277z"/>
				<path style="fill:#263238;" d="M161.34,321.789c4.999-2.118,10.768,0.217,12.886,5.215c2.118,4.999-0.217,10.768-5.215,12.886
					c-4.999,2.118-10.768-0.217-12.886-5.215C154.006,329.677,156.341,323.907,161.34,321.789z"/>
				<path style="fill:#263238;" d="M162.497,324.546L162.497,324.546c0.577-0.242,1.184-0.404,1.805-0.482l0.101-0.043l0.101-0.043
					l86.043-17.805c6.469-0.956,12.488,3.512,13.445,9.981c0.79,5.344-2.137,10.545-7.115,12.643
					c-0.888,0.375-1.818,0.641-2.77,0.794l-87.978,7.959l-0.046,0.02l-0.055,0.023c-3.749,0.468-7.167-2.191-7.635-5.939
					c-0.377-3.021,1.287-5.928,4.084-7.131 M161.306,321.76c-5.032,2.052-7.448,7.795-5.396,12.827
					c1.709,4.192,6.059,6.677,10.538,6.021l88.061-7.994c1.227-0.189,2.425-0.529,3.568-1.012
					c7.543-3.206,11.058-11.92,7.852-19.463c-2.651-6.238-9.192-9.886-15.893-8.865l-86.14,17.781
					c-0.889,0.11-1.759,0.344-2.584,0.693L161.306,321.76z"/>
				<path style="fill:#407BFF;" d="M250.101,312.808c-0.128,0.064-0.26,0.121-0.396,0.168c-1.013,0.279-2.08,0.037-2.811-0.637
					l-95.326-88.11c-1.15-1.064-1.132-2.859,0.039-4.008c1.171-1.15,3.053-1.22,4.202-0.156l91.85,84.88l30.532-111.128
					c0.544-1.501,2.24-2.355,3.788-1.907c1.485,0.429,2.305,1.907,1.871,3.369l-31.987,115.665
					C251.59,311.775,250.942,312.46,250.101,312.808z"/>
				<path style="fill:#407BFF;" d="M165.956,332.681c-1.016,0.433-2.191-0.039-2.624-1.055c-0.117-0.275-0.171-0.573-0.158-0.872
					l3.892-93.663c-0.012-1.104,0.874-2.01,1.978-2.021c1.105-0.012,2.01,0.874,2.021,1.978c0.001,0.07-0.002,0.14-0.009,0.209
					l-3.883,93.659C167.144,331.691,166.669,332.379,165.956,332.681z"/>
				<path style="fill:#407BFF;" d="M331.784,263.492c-1.167,0.496-2.55,0.071-3.357-1.032l-57.043-77.593l-101.145,55.049
					c-1.351,0.734-3.073,0.137-3.847-1.335s-0.305-3.26,1.046-3.995l103.215-56.177c1.194-0.652,3.117-1.051,3.986,0.129
					l58.144,80.423c0.976,1.329,0.791,3.182-0.413,4.139C332.195,263.261,331.997,263.392,331.784,263.492z"/>
				<path style="fill:#407BFF;" d="M282.447,195.734c-1.333,0.693-2.974,0.292-3.838-0.937l-14.375-20.474
					c-0.956-1.355-0.632-3.228,0.723-4.183c1.355-0.956,3.227-0.632,4.183,0.723l14.433,20.455c0.953,1.355,0.628,3.227-0.728,4.18
					c0,0-0.001,0.001-0.002,0.001C282.718,195.588,282.585,195.666,282.447,195.734z"/>
				<g>
					<path style="fill:#407BFF;" d="M135.102,232.334c7.443,5.469,22.367-10.489,26.909-15.288
						c4.542-4.799,19.31-5.309,14.979-10.232c-4.331-4.923-31.283,9.153-36.014,8.788
						C130.951,214.815,122.332,222.921,135.102,232.334z"/>
					<path style="opacity:0.5;" d="M135.102,232.334c7.443,5.469,22.367-10.489,26.909-15.288
						c4.542-4.799,19.31-5.309,14.979-10.232c-4.331-4.923-31.283,9.153-36.014,8.788
						C130.951,214.815,122.332,222.921,135.102,232.334z"/>
				</g>
				<path style="fill:#263238;" d="M255.975,337.423l-16.464,6.389c-1.03,0.4-2.188-0.111-2.588-1.141
					c-0.4-1.03,0.111-2.188,1.141-2.588l16.464-6.389c1.03-0.4,2.188,0.111,2.588,1.141
					C257.516,335.865,257.005,337.023,255.975,337.423L255.975,337.423z"/>
				<path style="fill:#263238;" d="M326.706,249.691c4.999-2.118,10.768,0.217,12.886,5.215c2.118,4.999-0.217,10.768-5.215,12.886
					c-4.999,2.118-10.768-0.217-12.886-5.215C319.372,257.579,321.707,251.809,326.706,249.691z"/>
				<polygon style="opacity:0.2;" points="153.159,225.699 154.809,227.224 159.982,223.92 157.528,221.652 				"/>
			</g>
			<path style="fill:none;stroke:#407BFF;stroke-width:0.5;stroke-linecap:round;stroke-linejoin:round;stroke-miterlimit:10;" d="
				M164.655,242.969c-0.464,5.752-0.927,11.505-1.391,17.257"/>
			<g>
				
					<line style="fill:none;stroke:#407BFF;stroke-width:0.5;stroke-linecap:round;stroke-linejoin:round;stroke-miterlimit:10;" x1="278.375" y1="175.775" x2="293.323" y2="197.458"/>
				
					<line style="fill:none;stroke:#407BFF;stroke-width:0.5;stroke-linecap:round;stroke-linejoin:round;stroke-miterlimit:10;" x1="273.62" y1="168.742" x2="276.765" y2="173.304"/>
			</g>
		</g>
		<g>
			<g>
				<polygon style="fill:#CE7A63;" points="239.927,329.786 248.623,327.065 244.546,306.682 232.536,312.345 				"/>
				<polygon style="fill:#E0E0E0;" points="239.181,327.982 235.038,318.258 246.102,313.878 248.304,325.24 244.517,329.577 				
					"/>
				<g>
					<path style="fill:#407BFF;" d="M248.27,322.865l-2.981,1.263c-0.675,0.286-1.154,0.891-1.322,1.605
						c-0.724,3.076-2.392,2.736-5.197,1.322c-1.247,0.365-0.989,1.865-0.931,2.273l1.207,9.051c0.093,0.759,0.784,1.299,1.543,1.206
						c0.135-0.017,0.267-0.053,0.391-0.108c3.62-1.534,5.333-2.26,9.839-4.17l13.78-5.84c3.757-1.592,2.931-5.708,1.235-5.402
						c-7.61,1.411-13.405,1.452-16.413,0.339C248.872,324.218,249.169,323.78,248.27,322.865z"/>
					
						<path style="fill:none;stroke:#263238;stroke-width:0.5;stroke-linecap:round;stroke-linejoin:round;stroke-miterlimit:10;" d="
						M251.315,324.289c-0.968,0.575-1.66,1.592-1.841,2.704"/>
					
						<path style="fill:none;stroke:#263238;stroke-width:0.5;stroke-linecap:round;stroke-linejoin:round;stroke-miterlimit:10;" d="
						M253.758,324.898c-0.968,0.575-1.66,1.593-1.841,2.704"/>
					
						<path style="fill:none;stroke:#263238;stroke-width:0.5;stroke-linecap:round;stroke-linejoin:round;stroke-miterlimit:10;" d="
						M256.561,325.094c-0.968,0.575-1.66,1.593-1.841,2.704"/>
				</g>
			</g>
			<path style="fill:#CE7A63;" d="M191.079,183.772c0,0,28.57,39.257,36.863,62.928c9.102,25.912,17.52,64.561,17.52,64.561
				l-11.256,5.025c0,0-22.38-41.989-31.493-67.158c-3.391-7.152-26.054-25.937-39.355-42.253
				c-5.958-7.308-7.524-17.155-6.645-24.902C170.773,179.196,191.079,183.772,191.079,183.772z"/>
			<path style="fill:#263238;" d="M191.079,183.772c0,0-20.305-4.576-34.366-1.799c-0.88,7.748,0.687,17.594,6.645,24.902
				c13.302,16.316,38.864,46.432,38.864,46.432l25.221-11.669C219.149,217.968,191.079,183.772,191.079,183.772z"/>
			<path style="opacity:0.3;" d="M159.24,183.769c0.228,0.146,15.191,9.4,26.349,10.939s19.257,0.232,21.096-2.908
				c1.839-3.14-1.395-8.262-1.395-8.262l-46.596-0.141"/>
			<path style="opacity:0.3;" d="M188.02,226.864c0.029,0.455,1.959,4.764,1.959,4.764l13.571-7.441l-1.884-4.446L188.02,226.864z"
				/>
			<path style="opacity:0.3;fill:none;stroke:#000000;stroke-width:0.5;stroke-miterlimit:10;" d="M166.986,201.792
				c4.217-0.777,7.779-4.336,8.558-8.552"/>
			<path style="opacity:0.3;fill:none;stroke:#000000;stroke-width:0.5;stroke-miterlimit:10;" d="M190.508,231.338
				c0,0,3.915,9.301,6.555,9.8c2.64,0.499,11.307-5.062,11.104-6.054c-0.203-0.993-5.049-10.556-5.049-10.556"/>
		</g>
		<g>
			<g>
				<g>
					<path style="fill:#407BFF;" d="M171.547,115.5c-4.056-0.46-8.151,1.168-11.329,3.729c-3.179,2.561-5.545,5.989-7.575,9.529
						c-3.578,6.238-6.257,12.99-7.93,19.984c-1.111,4.644-1.683,9.887,0.921,13.889c1.79,2.75,4.855,4.469,8.031,5.296
						c3.175,0.828,6.496,0.861,9.777,0.89l0,0c5.13-14.617,12.304-29.123,14.513-44.456c0.216-1.497,0.413-3.058-0.059-4.496
						C177.049,117.286,174.244,115.806,171.547,115.5z"/>
				</g>
				<g style="opacity:0.5;">
					<path d="M171.547,115.5c-4.056-0.46-8.151,1.168-11.329,3.729c-3.179,2.561-5.545,5.989-7.575,9.529
						c-3.578,6.238-6.257,12.99-7.93,19.984c-1.111,4.644-1.683,9.887,0.921,13.889c1.79,2.75,4.855,4.469,8.031,5.296
						c3.175,0.828,6.496,0.861,9.777,0.89l0,0c5.13-14.617,12.304-29.123,14.513-44.456c0.216-1.497,0.413-3.058-0.059-4.496
						C177.049,117.286,174.244,115.806,171.547,115.5z"/>
				</g>
			</g>
			<path style="fill:#407BFF;" d="M219.4,115.807c3.878,6.788,8.801,16.281,11.596,21.129l-14.665,9.161
				c-15.493-13.921-17.944-27.767-13.082-32.953c0,0,4.889-5.989,11.625-2.044C216.783,112.217,218.304,113.888,219.4,115.807z"/>
			<polygon style="opacity:0.3;" points="218.146,144.442 214.963,124.518 212.968,141.186 			"/>
			<path style="fill:#407BFF;" d="M217.099,113.361c-0.408,8.125-1.699,17.629-3.889,26.835
				c-5.981,25.137-6.738,36.758-7.093,43.464c-0.286,5.392-4.743,9.587-10.143,9.582c-11.444-0.011-29.664-3.412-39.205-11.293
				c-3.497-3.902,5.222-14.352,10.953-36.203l7.343-31.27c0.97-4.132,4.456-7.216,8.68-7.636c15.437-1.534,26.571,1.613,30.768,4.39
				C214.511,111.231,216.932,113.066,217.099,113.361z"/>
			<g>
				<path style="fill:#407BFF;" d="M182.775,106.025c0.755-0.483,5.298-0.843,8.437,0.428c3.367,1.363,0.771,34.179-1.304,38.971
					c-2.075,4.792-28.247,18.295-28.247,18.295l2.276-6.038c0,0,17.109-8.433,21.092-14.409
					C189.012,137.296,182.775,106.025,182.775,106.025z"/>
				<path style="opacity:0.5;" d="M182.775,106.025c0.755-0.483,4.999-0.922,8.437,0.428c3.381,1.328,0.771,34.179-1.304,38.971
					c-2.075,4.792-28.247,18.295-28.247,18.295l2.276-6.038c0,0,17.109-8.433,21.092-14.409
					C189.012,137.296,182.775,106.025,182.775,106.025z"/>
			</g>
			<path style="opacity:0.3;" d="M179.215,128.812c0,0,8.833,19.007,11.085,21.935c2.252,2.928,9.503-3.439,9.503-3.439l-5.715-5.07
				L179.215,128.812z"/>
			<path style="fill:#407BFF;" d="M215.324,130.21c0,0-2.712-17.736-5.347-21.163c0,0,2.912,0.546,4.941,2.266
				C218.324,114.199,215.324,130.21,215.324,130.21z"/>
			<path style="opacity:0.5;" d="M215.324,130.21c0,0-2.712-17.736-5.347-21.163c0,0,2.912,0.546,4.941,2.266
				C218.324,114.199,215.324,130.21,215.324,130.21z"/>
		</g>
		<g>
			<path style="fill:#CE7A63;" d="M191.774,139.721c0.853,1.448,18.292,17.13,21.911,18.831c3.619,1.701,37.62,6.188,37.62,6.188
				l2.189-5.789l-30.94-12.288l-19.126-18.111L191.774,139.721z"/>
			<path style="fill:#407BFF;" d="M192.414,112.719c5.773,7.408,12.201,13.474,16.546,19.009l-16.39,17.214
				c-18.914-24.488-20.762-36.707-15.221-41.16C177.35,107.782,183.314,101.248,192.414,112.719z"/>
			<path style="fill:#CE7A63;" d="M263.307,157.328c-0.498-1.175-4.269-2.441-6.243-3.176c-1.974-0.734-7.99,3.386-7.99,3.386
				l-0.449,0.467l-1.785-0.722l-0.624,6.768c0,0,4.067,0.921,5.418,1.273c1.35,0.352,5.74,3.296,5.681,1.196
				c-0.059-2.1-1.423-1.614-2.738-2.536c-1.315-0.921,0.48-2.791,1.197-3.28c0.717-0.489,1.595,0.71,2.49,1.624
				c0.896,0.914-0.973,1.521-0.973,1.521s-0.316,0.781,0.787,1.422c1.103,0.641,2.823-1.843,4.01-2.531
				c1.187-0.688,0.074-1.787,0.074-1.787l1.401-1.056C263.564,159.898,263.805,158.503,263.307,157.328z"/>
			<path style="fill:#263238;" d="M258.591,161.557c0.676,1.594-0.069,3.434-1.663,4.11c-1.594,0.676-3.434-0.069-4.11-1.663
				c-0.676-1.594,0.069-3.434,1.663-4.11C256.076,159.218,257.916,159.963,258.591,161.557z"/>
		</g>
		<g>
			<g>
				<g>
					<g>
						<path style="fill:#CE7A63;" d="M192.426,106.429c0,0,2.016-5.195,1.067-15.248c0.002-0.01,0.546-0.137,0.549-0.147
							c-0.127-1.405-0.298-2.713-0.477-3.853c-0.003-0.033-0.001-0.043-0.001-0.043l11.499,10.535
							c-0.886,2.989-0.913,9.084-0.734,11.694c0,0,0.788,4.816-5.238,3.873C194.687,112.55,192.426,106.429,192.426,106.429z"/>
						<path style="opacity:0.2;" d="M204.471,101.998l-7.179-3.118c0.237,2.462,1.775,5.62,6.951,6.839
							C204.244,105.719,204.22,103.009,204.471,101.998z"/>
					</g>
					<g>
						<path style="fill:#263238;" d="M218.356,76.869c0.96,3.307,0.242,10.041-4.297,7.745
							C209.521,82.318,216.706,71.185,218.356,76.869z"/>
						<path style="fill:#CE7A63;" d="M194.668,80.787c-0.694,8.429-1.255,13.17,2.359,18.03c5.437,7.311,16.065,5.036,19.272-3.04
							c2.887-7.269,3.536-19.833-4.19-24.264C204.497,67.149,195.362,72.357,194.668,80.787z"/>
						<path style="fill:#263238;" d="M194.73,70.752c1.812-4.439,13.689-2.987,16.572-0.168c0.431,0.421-6.9,2.867-6.464,2.776
							l-3.379,0.648c-0.48-0.182-1.537,0.257-2.264,1.724c0,0-0.05,9.024-4.216,12.208c-3.387-2.199-4.169-3.824-4.652-6.98
							C189.608,76.257,192.478,73.031,194.73,70.752z"/>
						<path style="fill:#263238;" d="M206.279,84.927c-0.124,0.855,0.231,1.609,0.791,1.685c0.56,0.075,1.115-0.557,1.239-1.412
							c0.124-0.855-0.231-1.609-0.791-1.684C206.957,83.44,206.403,84.072,206.279,84.927z"/>
						<path style="fill:#263238;" d="M214.64,86.305c-0.124,0.855,0.23,1.609,0.791,1.685c0.561,0.075,1.115-0.557,1.239-1.412
							c0.124-0.855-0.231-1.609-0.791-1.685C215.318,84.818,214.764,85.45,214.64,86.305z"/>
						<path style="fill:#AD6359;" d="M211.981,85.437c0,0,2.093,4.639,2.711,6.495c-1.345,0.903-3.324,0.111-3.324,0.111
							L211.981,85.437z"/>
						<path style="fill:#263238;" d="M204.771,80.595c0.121,0.071,0.277,0.077,0.41,0.002c1.572-0.898,2.91-0.243,2.924-0.237
							c0.199,0.1,0.444,0.021,0.547-0.177c0.102-0.198,0.023-0.441-0.175-0.541c-0.07-0.036-1.747-0.857-3.697,0.258
							c-0.195,0.111-0.262,0.357-0.152,0.55C204.663,80.512,204.713,80.561,204.771,80.595z"/>
					</g>
				</g>
				<g>
					<g>
						<path d="M203.243,90.612l6.708,3.894c-0.584,0.701-1.176,1.411-1.921,1.938c-0.745,0.526-1.579,0.644-2.479,0.491
							c-1.287-0.22-2.343-1.194-2.64-2.465C202.614,93.198,202.867,91.862,203.243,90.612z"/>
					</g>
					<path style="fill:#FFFFFF;" d="M209.411,94.193c0,0-0.672,0.802-1.15,0.846c-0.477,0.043-5.359-3.106-5.359-3.106l0.34-1.321
						L209.411,94.193z"/>
					<path style="fill:#DE5753;" d="M206.492,96.989c0,0-0.105-1.339-1.469-2.232c-1.363-0.892-2.194-0.74-2.194-0.74
						s0.137,1.591,1.429,2.395C205.55,97.216,206.492,96.989,206.492,96.989z"/>
				</g>
				<path style="fill:#263238;" d="M218.862,83.231c0.077-0.005,0.153-0.033,0.219-0.083c0.178-0.136,0.213-0.391,0.079-0.568
					c-1.348-1.776-3.202-1.636-3.286-1.64c-0.222,0.018-0.39,0.213-0.375,0.436c0.016,0.222,0.207,0.388,0.427,0.372
					c0.077-0.009,1.506-0.099,2.589,1.327C218.599,83.186,218.731,83.24,218.862,83.231z"/>
			</g>
			<path style="fill:#263238;" d="M226.197,82.532c0,0-2.617,1.831-5.148,1.921c-1.031,0.037-5.586-1.679-5.586-1.679
				s-12.949-5.328-14.539-4.525c-1.59,0.803-2.889,7.878-2.889,7.878l-0.348,0.026l-6.228,1.236c0,0-0.963-3.123-1.556-5.414
				c-0.593-2.292-1.845-7.623-1.845-7.623l16.047-0.084L226.197,82.532z"/>
			<path style="fill:#407BFF;" d="M226.197,82.532c-0.001,0.003-0.354-0.362-0.123-0.88c1.392-3.127-5.061-14.868-16.684-17.228
				c-13.892-2.82-19.796,6.44-20.96,8.351l-0.371,1.575c0,0,12.889,0.278,14.419,0.639c4.583,1.081,15.928,6.242,19.878,7.354
				C225.655,83.272,226.197,82.532,226.197,82.532z"/>
			<g>
				<path style="fill:#CE7A63;" d="M190.362,87.275c0.357,2.248,1.725,4.112,3.263,5.175c2.314,1.599,4.411-0.255,4.555-2.922
					c0.13-2.4-0.918-6.124-3.62-6.66C191.899,82.341,189.954,84.705,190.362,87.275z"/>
				
					<path style="opacity:0.2;fill:none;stroke:#000000;stroke-width:0.5;stroke-linecap:round;stroke-linejoin:round;stroke-miterlimit:10;" d="
					M192.604,85.241c0.409-0.45,1.122-0.534,1.685-0.306c0.563,0.228,0.988,0.716,1.275,1.252c0.344,0.644,0.516,1.378,0.493,2.108"
					/>
			</g>
			<path style="fill:#263238;" d="M192.623,70.802c2.424-1.247,5.496-1.189,8.39-0.944c6.547,0.553,13.357,2.009,18.56,5.791
				c0.41,0.298,3.765,2.572,3.584,3.111c-0.208,0.619-3.267-1.408-3.656-1.606c-2.002-1.023-4.075-1.929-6.198-2.714
				c-4.248-1.57-8.699-2.653-13.195-3.208c-1.245-0.154-2.494-0.267-3.742-0.339C195.532,70.844,193.324,70.441,192.623,70.802z"/>
			<path style="fill:#263238;" d="M214.657,70.393c-1.005-0.476-1.767-0.732-2.724-1.298c-0.087-0.051-0.183-0.12-0.189-0.221
				c-0.006-0.106,0.091-0.188,0.183-0.241c0.558-0.322,1.251-0.302,1.88-0.166c1.525,0.329,2.608,0.995,3.63,2.174
				c0.228,0.263,0.744,0.996,0.762,1.343c0.043,0.805-0.874,0.174-1.267-0.059C216.149,71.46,215.382,70.736,214.657,70.393z"/>
			<path style="fill:#263238;" d="M201.104,66.511c0.413-0.203,0.88-0.265,1.339-0.306c0.843-0.076,1.822-0.136,2.706-0.009
				c1.153,0.062,2.279,0.264,3.342,0.625c0.304,0.103,0.704,0.616,0.545,0.896c-0.096,0.169-0.327,0.192-0.522,0.193
				c-2.385,0.016-4.77-0.142-7.132-0.472c-0.285-0.04-0.641-0.154-0.662-0.441C200.704,66.777,200.908,66.608,201.104,66.511z"/>
			<path style="fill:#263238;" d="M198.608,83.531c0,0-0.208,14.413,0.618,15.346c3.42,3.865,6.831,4.35,6.831,4.35
				s-0.373,0.45-2.385-0.151c-2.012-0.601-4.304-1.37-5.342-2.783c-1.038-1.413-0.991-9.158-1.346-11.157
				c-0.355-1.999-0.485-5.813-0.485-5.813L198.608,83.531z"/>
			<polygon style="fill:#263238;" points="197.901,97.281 193.685,93.89 193.625,92.45 197.557,95.41 			"/>
		</g>
	</g>
</g>
</svg>
